<?xml version="1.0" standalone="no"?>
<!DOCTYPE svg PUBLIC "-//W3C//DTD SVG 20010904//EN"
 "http://www.w3.org/TR/2001/REC-SVG-20010904/DTD/svg10.dtd">
<svg version="1.0" xmlns="http://www.w3.org/2000/svg"
 width="650.000000pt" height="530.000000pt" viewBox="0 0 650.000000 530.000000"
 preserveAspectRatio="xMidYMid meet">
<metadata>
Created by potrace 1.16, written by Peter Selinger 2001-2019
</metadata>
<g transform="translate(0.000000,530.000000) scale(0.100000,-0.100000)"
fill="#000000" stroke="none">
<path d="M1025 5289 c-98 -14 -211 -46 -300 -84 l-83 -36 -37 25 c-92 63 -223
35 -336 -71 -127 -118 -269 -421 -269 -572 0 -60 25 -159 49 -191 28 -38 80
-70 117 -70 30 0 33 -3 50 -52 27 -84 92 -210 145 -280 102 -137 266 -271 434
-355 273 -138 504 -135 790 8 l101 51 143 -66 c79 -36 212 -103 295 -148 232
-126 253 -136 302 -144 65 -9 121 10 171 60 106 106 93 332 -27 469 -30 35
-153 115 -400 264 -80 48 -99 63 -79 63 54 0 337 -31 422 -46 124 -23 196 -16
244 22 21 17 48 50 61 75 20 37 23 56 20 119 -4 96 -39 172 -107 239 -91 88
-204 124 -501 156 -212 23 -393 45 -410 50 -11 4 -19 29 -28 87 -32 222 -179
370 -415 419 -98 20 -245 23 -352 8z m340 -84 c146 -31 262 -113 311 -220 27
-58 52 -170 41 -182 -12 -12 -140 35 -206 75 -34 21 -99 74 -143 117 -45 44
-77 73 -73 65 42 -74 125 -187 158 -216 73 -62 183 -110 320 -138 40 -8 194
-29 342 -46 149 -17 303 -38 343 -45 191 -37 303 -146 305 -297 0 -69 -19
-103 -76 -131 -36 -18 -40 -18 -155 2 -64 11 -198 27 -297 36 -99 9 -254 23
-345 32 -162 15 -317 13 -385 -5 -26 -8 -21 -10 39 -16 38 -4 121 -16 185 -27
100 -17 128 -26 217 -74 132 -69 521 -309 555 -341 48 -46 81 -121 87 -195 7
-97 -3 -133 -48 -180 -38 -40 -41 -41 -92 -37 -43 3 -78 18 -183 78 -293 166
-586 296 -743 330 -104 23 -262 37 -247 23 6 -6 71 -31 145 -57 75 -26 141
-51 149 -55 16 -10 -80 -58 -184 -91 -105 -34 -257 -38 -363 -12 -166 42 -335
140 -480 276 -132 125 -203 238 -257 406 -22 70 -26 96 -21 147 13 131 113
369 210 501 100 135 295 238 526 277 104 18 281 18 365 0z m-805 -71 c6 -6
-15 -29 -50 -57 -140 -112 -289 -409 -322 -639 -6 -43 -15 -78 -19 -78 -23 0
-68 54 -78 94 -31 124 9 280 122 469 90 152 194 232 290 224 27 -2 52 -8 57
-13z"/>
<path d="M527 4843 c-4 -3 -7 -17 -7 -30 0 -28 30 -42 198 -97 127 -41 157
-44 171 -17 17 31 -8 49 -115 80 -55 17 -122 39 -148 51 -48 20 -87 26 -99 13z"/>
<path d="M450 4630 c-8 -15 -6 -24 9 -39 41 -41 407 -221 450 -221 27 0 44 32
28 53 -7 9 -68 41 -137 72 -69 31 -164 79 -212 106 -96 54 -122 59 -138 29z"/>
<path d="M397 4473 c-16 -16 -5 -52 26 -79 204 -185 314 -245 305 -166 -2 19
-21 39 -74 77 -40 27 -103 78 -142 113 -64 57 -98 73 -115 55z"/>
<path d="M5205 4473 c-42 -6 -122 -32 -170 -56 -99 -49 -182 -148 -227 -270
-21 -59 -22 -59 -57 -54 -55 7 -145 -9 -197 -34 -62 -31 -128 -107 -150 -171
-32 -97 0 -231 72 -299 l23 -21 -36 -36 c-79 -78 -103 -212 -63 -343 18 -62
30 -81 80 -130 42 -43 70 -62 103 -71 41 -11 46 -15 52 -47 39 -208 300 -305
702 -260 358 40 682 224 850 484 l47 72 41 -5 c45 -5 106 20 136 54 27 31 65
115 79 173 34 146 -40 481 -139 625 -39 56 -83 93 -146 122 -58 28 -111 30
-162 9 -32 -14 -38 -14 -57 0 -77 57 -196 131 -251 156 -181 82 -386 121 -530
102z m235 -89 c265 -50 541 -221 646 -399 81 -138 143 -462 116 -605 -21 -112
-150 -290 -283 -392 -127 -97 -297 -174 -474 -213 -108 -24 -392 -31 -485 -11
-109 23 -178 61 -217 120 -53 77 -49 82 65 90 104 8 230 30 244 44 5 5 -87 14
-203 21 -226 13 -262 21 -312 69 -48 45 -70 99 -75 182 -4 63 -1 85 18 128 25
58 64 92 107 94 15 1 69 -2 118 -7 86 -7 230 6 263 24 7 4 -35 13 -94 20 -167
19 -272 41 -306 65 -18 12 -46 40 -62 64 -40 57 -48 149 -18 208 42 82 116
127 207 126 240 -2 274 -1 330 13 95 24 157 61 247 147 84 81 86 87 10 36
-106 -73 -271 -128 -379 -128 -40 0 -40 7 3 96 86 182 278 257 534 208z m762
-263 c81 -51 136 -149 185 -326 22 -82 27 -122 27 -220 1 -103 -2 -127 -21
-167 -28 -61 -65 -98 -98 -98 -26 0 -26 1 -18 48 37 216 -53 589 -178 741 -16
20 -29 39 -29 43 0 5 19 8 43 8 30 0 57 -9 89 -29z"/>
<path d="M5855 3858 c-145 -13 -187 -21 -198 -40 -31 -49 59 -61 262 -34 112
15 145 32 125 64 -13 21 -51 23 -189 10z"/>
<path d="M5925 3634 c-44 -14 -145 -38 -225 -55 -80 -16 -151 -36 -158 -43
-20 -20 2 -56 33 -56 68 0 466 97 488 119 5 5 7 19 5 32 -4 33 -42 33 -143 3z"/>
<path d="M5965 3442 c-33 -20 -105 -55 -160 -77 -104 -44 -125 -66 -89 -95 14
-12 26 -11 82 9 79 28 249 115 277 142 15 15 17 23 9 37 -18 28 -55 23 -119
-16z"/>
<path d="M2763 2461 c-61 -16 -144 -63 -191 -109 -26 -26 -111 -128 -189 -227
-77 -99 -183 -230 -235 -290 -93 -108 -281 -295 -337 -334 l-28 -20 -7 87
c-20 273 -123 427 -315 472 -61 14 -194 8 -251 -11 -146 -49 -144 -210 7 -522
l57 -118 -13 -107 c-7 -59 -20 -167 -29 -240 l-17 -133 -41 -18 c-83 -37 -119
-117 -112 -249 4 -79 9 -98 46 -176 158 -329 418 -528 586 -446 25 12 54 35
63 51 11 18 23 27 31 24 8 -3 67 -10 131 -17 97 -9 133 -8 223 5 198 30 397
115 553 236 50 39 113 88 141 110 107 83 263 161 715 361 216 95 252 120 273
191 8 27 13 55 11 62 -2 7 -6 24 -9 39 -9 40 -52 86 -110 116 -71 36 -170 37
-326 0 -126 -30 -283 -59 -288 -53 -7 6 191 148 333 238 226 144 247 160 276
205 38 59 45 110 24 172 -31 92 -134 174 -253 199 -126 26 -186 8 -431 -131
-108 -61 -213 -122 -233 -135 -21 -13 -38 -21 -38 -18 0 15 219 325 289 410
115 138 78 288 -89 361 -41 18 -170 27 -217 15z m203 -95 c80 -37 114 -112 81
-176 -8 -14 -45 -66 -84 -115 -80 -102 -433 -626 -468 -695 -29 -58 -76 -172
-72 -177 2 -1 30 34 62 80 61 86 156 200 190 229 55 46 554 333 625 360 124
47 297 -8 350 -111 42 -84 17 -139 -96 -209 -481 -300 -714 -495 -829 -697
-35 -60 -37 -61 132 87 110 97 126 107 170 113 99 12 297 47 401 71 127 29
193 30 248 5 112 -51 110 -143 -6 -201 -32 -16 -157 -73 -277 -126 -384 -170
-548 -260 -673 -369 -157 -136 -380 -243 -572 -275 -146 -23 -351 -1 -442 48
-142 77 -348 352 -392 522 -20 78 -15 283 11 445 9 55 17 134 17 175 2 70 -1
81 -41 160 -105 205 -145 368 -105 418 23 28 77 41 170 42 221 1 319 -138 339
-482 10 -167 12 -167 195 -13 165 140 345 344 667 757 86 110 169 156 283 157
48 1 78 -5 116 -23z m-1727 -1654 c33 -159 252 -461 403 -557 52 -32 59 -48
29 -65 -31 -16 -85 -12 -146 11 -134 50 -334 307 -381 488 -24 97 -5 188 48
226 22 15 23 14 30 -17 3 -18 11 -57 17 -86z"/>
<path d="M1592 819 c-59 -56 -118 -112 -131 -124 -16 -16 -21 -29 -16 -44 9
-31 48 -27 92 11 81 67 213 203 213 218 0 20 -19 40 -38 40 -7 0 -61 -46 -120
-101z"/>
<path d="M1907 745 c-47 -36 -138 -99 -202 -141 -64 -42 -119 -83 -122 -91 -7
-18 15 -43 39 -43 34 0 408 256 422 289 11 24 -4 51 -28 51 -13 0 -62 -29
-109 -65z"/>
<path d="M1958 500 c-43 -22 -112 -52 -155 -66 -86 -28 -108 -46 -92 -75 13
-26 44 -24 131 7 140 50 248 105 254 130 14 56 -32 58 -138 4z"/>
</g>
</svg>
