<?xml version="1.0" standalone="no"?>
<!DOCTYPE svg PUBLIC "-//W3C//DTD SVG 20010904//EN"
 "http://www.w3.org/TR/2001/REC-SVG-20010904/DTD/svg10.dtd">
<svg version="1.0" xmlns="http://www.w3.org/2000/svg"
 width="860.000000pt" height="803.000000pt" viewBox="0 0 860.000000 803.000000"
 preserveAspectRatio="xMidYMid meet">

<g transform="translate(0.000000,803.000000) scale(0.100000,-0.100000)"
fill="#000000" stroke="none">
<path d="M5277 7604 c-142 -26 -319 -97 -437 -177 -160 -108 -256 -212 -599
-653 -652 -836 -893 -1117 -1307 -1524 -183 -180 -507 -470 -525 -470 -3 0 -9
64 -13 143 -22 442 -119 799 -286 1048 -54 80 -196 222 -275 274 -78 52 -208
107 -320 136 -82 22 -110 24 -310 24 -190 0 -236 -3 -333 -23 -160 -32 -213
-54 -280 -117 -103 -95 -142 -198 -142 -376 0 -58 7 -144 15 -191 43 -246 176
-590 383 -988 101 -195 101 -209 22 -785 -45 -324 -66 -513 -76 -675 l-6 -116
-66 -19 c-84 -24 -198 -100 -252 -168 -178 -222 -205 -591 -70 -942 213 -552
737 -1200 1101 -1363 346 -155 599 -148 771 23 31 31 67 77 80 101 21 41 26
45 53 41 17 -3 84 -15 150 -26 349 -60 719 -55 1058 14 552 112 1117 390 1567
770 214 181 252 211 361 283 304 202 753 427 1549 776 605 266 654 288 804
363 226 112 273 150 336 274 48 93 63 161 58 263 -5 105 -31 174 -100 263
-143 186 -474 307 -747 274 -50 -6 -103 -16 -118 -22 -125 -48 -1084 -238
-1141 -227 -11 2 37 44 128 113 365 275 757 540 1220 823 256 156 336 223 419
352 64 98 86 176 86 300 0 185 -57 312 -210 466 -138 139 -292 225 -504 282
-85 22 -116 25 -271 26 -150 1 -187 -2 -263 -22 -125 -31 -225 -73 -346 -146
-58 -34 -272 -156 -476 -271 -203 -115 -444 -253 -534 -307 -90 -54 -165 -98
-168 -98 -8 0 31 61 227 355 266 400 390 571 593 815 93 112 136 182 173 282
23 62 27 89 28 183 2 173 -47 289 -175 415 -194 192 -521 280 -832 224z m418
-234 c160 -50 288 -147 343 -260 23 -47 27 -68 27 -141 0 -78 -3 -91 -37 -160
-21 -42 -76 -121 -128 -184 -195 -235 -354 -455 -635 -880 -403 -610 -487
-736 -564 -844 -109 -154 -209 -324 -291 -494 -67 -140 -176 -415 -167 -423 3
-3 40 44 83 103 199 276 245 337 353 473 175 219 280 318 441 420 231 144 527
321 730 437 107 60 305 173 439 249 383 218 392 222 471 248 102 34 177 46
284 46 315 0 620 -165 738 -399 30 -60 33 -74 33 -156 0 -79 -4 -97 -29 -149
-16 -33 -55 -86 -90 -120 -64 -65 -82 -77 -419 -287 -920 -570 -1596 -1097
-1914 -1494 -135 -168 -347 -495 -331 -510 5 -5 174 142 553 478 105 93 209
180 232 193 47 28 137 47 302 63 265 27 966 163 1223 238 226 65 498 8 643
-135 62 -61 85 -111 85 -188 0 -72 -42 -167 -92 -209 -57 -48 -275 -151 -844
-401 -829 -362 -1206 -545 -1559 -755 -188 -112 -290 -186 -447 -320 -312
-268 -525 -408 -853 -562 -623 -291 -1238 -360 -1873 -211 -113 26 -176 53
-273 115 -307 199 -726 702 -948 1138 -116 229 -158 398 -168 676 -8 251 9
451 82 975 51 361 63 589 36 679 -7 24 -70 159 -139 300 -225 454 -309 696
-319 927 -8 170 18 238 107 285 84 43 432 73 598 51 535 -73 802 -563 802
-1476 0 -188 10 -228 60 -253 64 -32 93 -18 315 161 532 427 1018 946 1680
1796 496 636 583 736 714 824 118 78 215 120 352 151 96 22 303 14 394 -15z
m-4892 -4557 c20 -310 138 -598 408 -998 135 -200 287 -385 463 -561 172 -171
290 -266 411 -330 41 -21 75 -42 75 -47 0 -4 -19 -28 -41 -52 -78 -85 -208
-96 -394 -34 -179 60 -271 118 -433 273 -318 306 -644 824 -733 1164 -27 104
-30 300 -6 392 24 91 61 161 108 208 39 40 116 85 129 77 4 -2 10 -44 13 -92z"/>
<path d="M2170 3163 c-8 -3 -94 -83 -190 -177 -192 -187 -323 -306 -448 -406
-90 -72 -117 -114 -108 -165 9 -47 57 -85 106 -85 34 0 53 11 137 78 210 168
610 549 638 609 41 85 -46 179 -135 146z"/>
<path d="M2754 2667 c-341 -255 -480 -352 -707 -493 -104 -65 -195 -127 -203
-138 -8 -11 -14 -38 -14 -59 0 -51 52 -107 99 -107 39 0 56 9 240 122 199 124
387 254 708 494 244 182 273 207 282 240 20 72 -28 134 -104 134 -38 0 -63
-16 -301 -193z"/>
<path d="M3015 2009 c-218 -112 -346 -166 -581 -243 -163 -54 -204 -72 -226
-96 -41 -45 -38 -92 7 -137 34 -34 38 -35 88 -30 58 6 296 82 462 148 104 41
484 228 514 252 28 24 43 76 31 112 -15 46 -42 67 -92 72 -38 4 -61 -5 -203
-78z"/>
</g>
</svg>
