<?xml version="1.0" standalone="no"?>
<!DOCTYPE svg PUBLIC "-//W3C//DTD SVG 20010904//EN"
 "http://www.w3.org/TR/2001/REC-SVG-20010904/DTD/svg10.dtd">
<svg version="1.0" xmlns="http://www.w3.org/2000/svg"
 width="860.000000pt" height="750.000000pt" viewBox="0 0 860.000000 750.000000"
 preserveAspectRatio="xMidYMid meet">

<g transform="translate(0.000000,750.000000) scale(0.100000,-0.100000)"
fill="#000000" stroke="none">
<path d="M4650 7083 c-787 -57 -1665 -411 -2314 -931 -130 -104 -130 -104
-155 -87 -50 32 -152 75 -214 90 -91 21 -247 19 -343 -5 -106 -26 -260 -104
-364 -183 -115 -87 -267 -246 -336 -352 -238 -365 -446 -1027 -515 -1635 -18
-160 -16 -475 5 -595 19 -116 76 -292 134 -417 106 -229 252 -386 419 -448
110 -41 226 -46 378 -15 29 6 31 4 114 -134 399 -664 980 -1170 1740 -1517
523 -238 984 -358 1612 -420 216 -21 719 -30 905 -15 594 47 1005 196 1275
461 98 97 154 176 211 297 40 86 88 251 88 307 0 17 4 36 8 41 4 6 49 23 101
38 297 88 523 278 668 563 273 535 167 1241 -233 1544 l-63 47 51 49 c68 66
166 194 215 279 90 156 133 306 140 488 13 309 -85 563 -306 790 -205 211
-470 328 -796 352 -79 6 -282 -7 -341 -21 -19 -5 -25 8 -69 133 -124 361 -256
585 -465 793 -286 285 -666 455 -1119 500 -95 9 -324 11 -431 3z m382 -287
c124 -7 273 -37 419 -86 374 -124 642 -358 821 -715 52 -102 152 -364 144
-373 -11 -10 -373 18 -492 38 -381 65 -630 172 -1086 467 -274 178 -275 178
-193 103 39 -36 160 -153 270 -260 225 -221 294 -277 439 -364 251 -151 555
-230 995 -257 212 -13 292 -10 401 17 104 25 385 26 484 1 376 -95 633 -380
662 -737 25 -298 -181 -656 -446 -777 -74 -33 -136 -50 -300 -82 -314 -61
-546 -95 -955 -141 -99 -11 -196 -23 -215 -27 l-35 -6 40 -8 c22 -4 107 -22
190 -39 217 -45 371 -60 606 -60 190 0 441 17 582 40 69 11 183 -14 254 -56
139 -81 249 -262 295 -484 27 -127 21 -384 -10 -502 -103 -384 -347 -623 -690
-673 -53 -8 -214 -19 -357 -24 -294 -11 -1074 -58 -1150 -69 l-50 -7 71 -27
c237 -89 612 -145 1037 -155 l247 -6 -6 -36 c-20 -120 -71 -236 -149 -338
-122 -163 -385 -309 -682 -378 -381 -89 -850 -106 -1403 -50 -588 60 -1086
203 -1595 458 -172 85 -261 137 -423 244 -478 315 -858 731 -1136 1242 -99
182 -129 297 -146 541 -33 501 117 1310 344 1846 139 330 402 647 775 933 590
454 1430 774 2121 810 74 4 155 6 180 4 25 -1 89 -5 142 -7z m-3084 -931 c23
-9 42 -20 42 -25 0 -4 -21 -31 -47 -61 -269 -308 -417 -597 -557 -1085 -191
-671 -255 -1366 -165 -1785 31 -142 33 -134 -33 -137 -109 -6 -196 37 -272
135 -84 106 -177 316 -214 481 -24 110 -24 477 2 657 77 552 267 1130 468
1428 125 184 352 358 526 402 71 18 192 13 250 -10z"/>
<path d="M2122 4839 c-42 -27 -62 -67 -62 -121 0 -51 28 -101 67 -122 45 -23
427 -77 708 -101 39 -3 180 -12 315 -20 235 -13 247 -13 288 5 77 34 103 138
52 209 -35 50 -80 59 -385 76 -295 16 -551 42 -750 75 -153 25 -192 25 -233
-1z"/>
<path d="M2055 4066 c-17 -7 -43 -28 -58 -45 -48 -58 -30 -163 35 -205 46 -29
593 -182 883 -246 265 -59 877 -180 909 -180 18 0 48 10 67 23 91 60 87 184
-7 239 -16 9 -189 49 -384 88 -593 119 -788 166 -1157 275 -122 36 -230 65
-240 65 -10 -1 -32 -7 -48 -14z"/>
<path d="M1991 3403 c-102 -53 -107 -184 -9 -248 184 -122 551 -316 748 -397
240 -98 450 -178 470 -178 35 0 85 26 113 59 44 52 34 144 -19 193 -11 9 -127
59 -259 111 -349 138 -514 219 -815 400 -129 78 -173 90 -229 60z"/>
</g>
</svg>
