<?xml version="1.0" standalone="no"?>
<!DOCTYPE svg PUBLIC "-//W3C//DTD SVG 20010904//EN"
 "http://www.w3.org/TR/2001/REC-SVG-20010904/DTD/svg10.dtd">
<svg version="1.0" xmlns="http://www.w3.org/2000/svg"
 width="820.000000pt" height="618.000000pt" viewBox="0 0 820.000000 618.000000"
 preserveAspectRatio="xMidYMid meet">

<g transform="translate(0.000000,618.000000) scale(0.100000,-0.100000)"
fill="#000000" stroke="none">
<path d="M3150 5768 c-407 -38 -802 -143 -1132 -300 l-126 -60 -58 47 c-107
87 -214 125 -355 125 -187 0 -438 -110 -611 -269 -201 -184 -455 -593 -614
-988 -123 -306 -169 -541 -145 -740 50 -411 198 -606 481 -631 l75 -7 14 -45
c63 -208 190 -491 305 -680 363 -595 1067 -1133 1783 -1364 219 -70 400 -99
618 -99 426 1 866 131 1301 384 55 33 106 59 113 59 18 0 216 -83 421 -177
375 -172 774 -380 1335 -696 255 -143 470 -166 664 -71 140 69 246 204 312
399 22 65 24 85 24 280 0 235 -7 278 -75 437 -60 140 -123 233 -234 343 -104
103 -121 116 -391 281 -88 53 -243 149 -345 212 -102 64 -282 173 -400 243
-118 71 -222 133 -230 138 -32 21 72 14 635 -40 312 -30 394 -41 758 -103 170
-30 233 -32 332 -11 98 21 185 67 261 138 122 114 192 307 181 501 -24 432
-338 806 -792 945 -197 60 -550 114 -1185 181 -505 53 -890 105 -915 124 -10
8 -19 53 -30 144 -19 164 -53 312 -100 432 -218 565 -804 885 -1610 879 -93
-1 -213 -6 -265 -11z m615 -224 c219 -29 383 -77 538 -156 370 -190 572 -501
612 -940 9 -92 15 -89 -111 -52 -128 36 -216 69 -322 119 -216 103 -353 205
-591 445 -101 102 -182 181 -180 175 5 -12 94 -151 213 -333 189 -288 387
-442 726 -565 314 -114 596 -164 1400 -247 586 -61 962 -117 1145 -171 318
-95 568 -354 630 -654 53 -260 -57 -479 -264 -524 -69 -15 -120 -14 -216 4
-159 30 -372 66 -450 76 -151 18 -350 40 -460 49 -150 13 -563 47 -743 60 -81
7 -226 21 -322 32 -366 42 -646 44 -925 7 -220 -29 -230 -33 -110 -48 268 -32
510 -66 620 -87 202 -39 323 -68 379 -92 156 -67 582 -315 1194 -693 172 -107
353 -218 402 -248 201 -123 339 -309 402 -542 29 -110 32 -319 4 -418 -39
-142 -117 -250 -214 -298 -51 -25 -67 -28 -157 -27 -127 0 -165 15 -450 177
-590 335 -1129 601 -1605 795 -270 109 -492 171 -781 216 -172 28 -489 46
-489 29 0 -7 387 -150 743 -274 81 -29 147 -55 147 -60 0 -12 -271 -142 -384
-185 -131 -48 -271 -88 -409 -116 -99 -20 -141 -23 -352 -22 -209 0 -253 3
-340 22 -573 126 -1228 527 -1636 1000 -214 250 -395 569 -498 877 -68 207
-85 296 -78 416 26 417 332 1138 649 1527 189 231 556 456 956 588 423 139
927 191 1327 138z m-2135 -211 c30 -16 55 -33 55 -39 0 -7 -43 -45 -95 -85
-254 -196 -418 -412 -625 -824 -216 -428 -328 -788 -342 -1097 -7 -141 -3
-136 -78 -117 -129 33 -211 204 -222 468 -4 79 -1 149 7 195 70 395 365 980
639 1268 213 225 484 319 661 231z"/>
<path d="M1579 4501 c-52 -53 -35 -136 35 -170 160 -78 813 -291 890 -291 23
0 45 9 65 26 27 22 31 32 31 75 0 65 -24 89 -115 116 -39 12 -142 42 -229 68
-153 45 -334 108 -499 174 -100 40 -139 40 -178 2z"/>
<path d="M1379 3941 c-23 -23 -29 -38 -29 -71 0 -57 10 -71 77 -112 151 -93
549 -299 733 -381 19 -8 74 -33 122 -56 294 -136 339 -153 377 -147 51 8 81
45 81 100 0 75 1 74 -360 236 -261 117 -542 258 -741 371 -180 102 -210 109
-260 60z"/>
<path d="M1254 3486 c-60 -26 -80 -86 -49 -145 18 -35 276 -273 405 -374 133
-104 407 -287 430 -287 31 0 71 19 91 43 22 27 25 94 4 124 -8 11 -83 67 -167
124 -137 93 -298 216 -368 280 -14 13 -77 71 -140 130 -123 114 -152 129 -206
105z"/>
</g>
</svg>
