<?xml version="1.0" standalone="no"?>
<!DOCTYPE svg PUBLIC "-//W3C//DTD SVG 20010904//EN"
 "http://www.w3.org/TR/2001/REC-SVG-20010904/DTD/svg10.dtd">
<svg version="1.0" xmlns="http://www.w3.org/2000/svg"
 width="840.000000pt" height="801.000000pt" viewBox="0 0 840.000000 801.000000"
 preserveAspectRatio="xMidYMid meet">

<g transform="translate(0.000000,801.000000) scale(0.100000,-0.100000)"
fill="#000000" stroke="none">
<path d="M3675 7585 c-448 -44 -849 -157 -1215 -341 -163 -83 -186 -98 -210
-136 -19 -32 -20 -52 -20 -753 0 -666 1 -723 18 -755 21 -43 71 -73 122 -72
49 1 67 11 160 88 169 139 446 297 664 379 147 54 385 112 512 124 440 41 704
-152 704 -514 0 -120 -29 -236 -90 -361 -88 -182 -169 -273 -480 -539 -361
-309 -493 -461 -618 -710 -191 -383 -230 -866 -100 -1265 30 -94 53 -134 83
-148 19 -9 189 -12 661 -12 700 0 685 -1 724 62 27 44 25 82 -6 169 -58 160
-68 209 -68 324 0 86 5 126 23 185 26 86 77 195 118 257 92 135 283 322 598
584 438 365 663 667 795 1067 54 165 80 315 87 502 15 399 -87 786 -284 1085
-93 140 -291 336 -437 433 -260 172 -580 286 -946 337 -161 23 -611 28 -795
10z m775 -220 c461 -73 775 -214 1024 -460 138 -136 227 -287 300 -510 140
-429 117 -852 -69 -1230 -142 -289 -304 -475 -717 -818 -130 -108 -278 -239
-329 -290 -291 -293 -419 -553 -419 -855 0 -62 23 -244 36 -284 5 -17 -21 -18
-448 -18 l-454 0 -17 68 c-79 316 -47 648 94 951 92 197 207 330 524 602 463
398 613 602 697 949 8 33 13 114 13 205 0 172 -12 226 -78 365 -34 70 -57 101
-132 175 -75 76 -106 99 -185 138 -52 26 -140 59 -195 74 -92 24 -116 26 -315
27 -185 1 -230 -2 -326 -21 -281 -57 -599 -192 -871 -369 l-83 -54 0 510 0
509 63 35 c129 71 357 158 566 215 135 37 438 89 611 105 116 10 608 -3 710
-19z"/>
<path d="M3885 2183 c-340 -31 -606 -169 -772 -401 -237 -332 -194 -802 99
-1090 142 -140 292 -221 494 -268 98 -23 378 -27 464 -6 170 42 295 99 420
193 277 209 389 556 295 914 -65 246 -247 460 -481 566 -141 64 -374 105 -519
92z m248 -298 c185 -39 353 -159 434 -311 70 -132 95 -322 58 -451 -54 -191
-239 -357 -465 -420 -91 -25 -319 -25 -410 0 -119 33 -244 101 -324 177 -124
118 -183 236 -193 390 -20 307 234 573 602 630 73 11 206 4 298 -15z"/>
</g>
</svg>
